<svg id="Layer_1" enable-background="new 0 0 508.16 508.16" height="512" viewBox="0 0 508.16 508.16" width="512" xmlns="http://www.w3.org/2000/svg"><g><path d="m434.393 318.198-42.427 42.426-21.213-21.213 19.393-19.394c17.546-17.546 17.546-46.094 0-63.64-8.143-8.144-18.657-12.501-29.341-13.085-1.244-22.751-19.362-41.208-42.429-42.451-.589-10.675-4.946-21.18-13.082-29.316h-.001c-8.143-8.145-18.657-12.502-29.341-13.086-.584-10.684-4.942-21.197-13.086-29.341-17.545-17.545-46.095-17.545-63.639 0l-19.394 19.394-42.426-42.427 42.426-42.426-63.639-63.639-106.066 106.065 63.64 63.64 42.427-42.427 42.426 42.427-21.214 21.213c-11.721-11.722-30.702-11.727-42.426.001l-31.82 31.819c-31.753 31.754-28.338 77.273-26.298 104.471.167 2.234.325 4.33.447 6.232l-26.227 26.227 148.493 148.492 37.162-37.161c21.533-.605 47.308-4.882 67.949-25.522l84.854-84.853 21.213 21.213-42.427 42.427 63.64 63.64 106.066-106.066zm-360.625-190.919-21.213-21.214 63.64-63.64 21.213 21.214zm231.526 107.885c5.863-5.863 15.35-5.862 21.213 0 5.849 5.849 5.849 15.365 0 21.214l-61.821 61.819c-5.863 5.862-15.349 5.862-21.212 0h-.001c-5.862-5.861-5.862-15.35 0-21.213zm-21.214-42.426c5.848 5.849 5.848 15.364 0 21.213l-61.821 61.82c-5.17 5.17-13.011 5.689-18.699 2.028.308-7.077-1.06-14.537-4.338-21.418l63.644-63.644c5.849-5.846 15.366-5.846 21.214.001zm-63.639-42.427c5.849-5.849 15.365-5.847 21.213 0 5.849 5.849 5.849 15.365 0 21.214l-61.82 61.819c-1.867-1.867-15.91-15.909-21.213-21.213zm23.033 273.953c-11.79 11.789-27.65 16.819-53.033 16.819h-6.213l-24.651 24.651-106.067-106.066 14.044-14.043v-6.214c0-21.018-10.271-68.368 16.82-95.46l31.819-31.819 53.036 53.034c5.725 5.731 5.936 15.274-.002 21.212-5.849 5.848-15.365 5.848-21.214 0l-31.819-31.819-21.213 21.213 31.819 31.819c18.092 18.095 48.008 17.572 65.374-1.841 5.269 2.534 11.015 4.018 16.979 4.342 1.246 22.873 19.55 41.193 42.45 42.428.914 16.557 10.769 31.076 25.514 38.1zm63.639-63.64c-5.848 5.848-15.364 5.849-21.213 0s-5.849-15.365 0-21.214l61.82-61.819c5.849-5.848 15.364-5.848 21.213 0 5.849 5.849 5.849 15.365 0 21.214zm63.64 63.64 63.64-63.64 21.213 21.213-63.64 63.641z"/></g></svg>