<svg id="Capa_1" enable-background="new 0 0 512 512" height="512" viewBox="0 0 512 512" width="512" xmlns="http://www.w3.org/2000/svg"><g><circle cx="87.046" cy="102.467" r="61.667"/><path d="m380.94 319.008c24.736 0 44.79-20.053 44.79-44.79s-20.054-44.791-44.79-44.791c-24.738 0-44.791 20.053-44.791 44.791 0 24.737 20.053 44.79 44.791 44.79z"/><path d="m149.51 324.028c13.416-6.456 27.713-9.729 42.491-9.729 14.779 0 29.075 3.273 42.491 9.73 6.442 3.1 13.88 4.739 21.508 4.739 7.629 0 15.066-1.639 21.509-4.739 11.033-5.309 22.661-8.461 34.661-9.415-24.701-45.956-19.226-97.322-19.196-97.415l44.807-44.806c12.513-12.513 12.513-32.8 0-45.312-12.69-12.69-33.327-12.483-45.762.458l-62.385 64.932-14.75 64.208-68.361 68.641c1.014-.401 2.015-.824 2.987-1.292z"/><path d="m477.483 351.062c-18.737-9.017-40.228-9.016-58.966 0-10.477 5.042-22.413 7.706-34.518 7.706s-24.041-2.665-34.517-7.706c-18.737-9.017-40.228-9.016-58.966 0-10.477 5.042-22.413 7.706-34.518 7.706-12.104 0-24.04-2.665-34.517-7.706-18.738-9.017-40.229-9.016-58.966 0-10.478 5.042-22.414 7.706-34.518 7.706s-24.04-2.665-34.517-7.706c-18.739-9.017-40.23-9.016-58.966 0-10.474 5.041-22.41 7.705-34.514 7.705v30c16.58 0 33.014-3.691 47.525-10.673 10.471-5.038 22.479-5.038 32.95 0 14.511 6.982 30.944 10.673 47.524 10.673s33.014-3.691 47.525-10.673c10.471-5.038 22.479-5.038 32.95 0 14.511 6.982 30.944 10.673 47.524 10.673 16.581 0 33.015-3.691 47.525-10.673 10.472-5.039 22.48-5.039 32.949 0 14.511 6.982 30.944 10.673 47.525 10.673s33.015-3.691 47.525-10.673c10.472-5.039 22.48-5.039 32.949 0 14.511 6.982 30.944 10.673 47.525 10.673v-30c-12.1 0-24.037-2.664-34.513-7.705z"/><path d="m418.518 433.493c-10.477 5.042-22.413 7.706-34.518 7.706s-24.041-2.665-34.517-7.706c-18.737-9.017-40.228-9.016-58.966 0-10.477 5.042-22.413 7.706-34.518 7.706-12.104 0-24.04-2.665-34.517-7.706-18.738-9.017-40.229-9.016-58.966 0-10.478 5.042-22.414 7.706-34.518 7.706s-24.04-2.665-34.517-7.706c-18.739-9.017-40.23-9.016-58.966 0-10.475 5.042-22.411 7.706-34.515 7.706v30c16.58 0 33.014-3.69 47.525-10.673 10.471-5.038 22.479-5.038 32.95 0 14.511 6.983 30.944 10.673 47.524 10.673s33.014-3.69 47.525-10.673c10.471-5.038 22.479-5.038 32.95 0 14.511 6.983 30.944 10.673 47.524 10.673 16.581 0 33.015-3.69 47.525-10.673 10.472-5.039 22.48-5.039 32.949 0 14.511 6.983 30.944 10.673 47.525 10.673s33.015-3.69 47.525-10.673c10.472-5.039 22.48-5.039 32.949 0 14.511 6.983 30.944 10.673 47.525 10.673v-30c-12.104 0-24.041-2.665-34.517-7.706-18.733-9.016-40.224-9.015-58.961 0z"/></g></svg>