<svg height="512pt" viewBox="0 0 512 512" width="512pt" xmlns="http://www.w3.org/2000/svg"><path d="m150.175781 15c0-8.285156-6.714843-15-15-15-8.28125 0-15 6.714844-15 15v55.496094h30zm0 0"/><path d="m198.507812 15c0-8.285156-6.71875-15-15-15-8.285156 0-15 6.714844-15 15v55.496094h30zm0 0"/><path d="m246.835938 15c0-8.285156-6.71875-15-15-15-8.285157 0-15 6.714844-15 15v55.496094h30zm0 0"/><path d="m295.164062 15c0-8.285156-6.714843-15-15-15-8.28125 0-15 6.714844-15 15v55.496094h30zm0 0"/><path d="m343.492188 15c0-8.285156-6.714844-15-15-15-8.28125 0-15 6.714844-15 15v55.496094h30zm0 0"/><path d="m391.824219 15c0-8.285156-6.71875-15-15-15-8.285157 0-15 6.714844-15 15v55.496094h30zm0 0"/><path d="m361.824219 497c0 8.285156 6.714843 15 15 15 8.28125 0 15-6.714844 15-15v-55.496094h-30zm0 0"/><path d="m313.492188 497c0 8.285156 6.71875 15 15 15 8.285156 0 15-6.714844 15-15v-55.496094h-30zm0 0"/><path d="m265.164062 497c0 8.285156 6.71875 15 15 15 8.285157 0 15-6.714844 15-15v-55.496094h-30zm0 0"/><path d="m216.835938 497c0 8.285156 6.714843 15 15 15 8.28125 0 15-6.714844 15-15v-55.496094h-30zm0 0"/><path d="m168.507812 497c0 8.285156 6.714844 15 15 15 8.28125 0 15-6.714844 15-15v-55.496094h-30zm0 0"/><path d="m120.175781 497c0 8.285156 6.71875 15 15 15 8.285157 0 15-6.714844 15-15v-55.496094h-30zm0 0"/><path d="m497 150.175781c8.285156 0 15-6.714843 15-15 0-8.28125-6.714844-15-15-15h-55.496094v30zm0 0"/><path d="m497 198.507812c8.285156 0 15-6.71875 15-15 0-8.285156-6.714844-15-15-15h-55.496094v30zm0 0"/><path d="m497 246.835938c8.285156 0 15-6.71875 15-15 0-8.285157-6.714844-15-15-15h-55.496094v30zm0 0"/><path d="m497 295.164062c8.285156 0 15-6.714843 15-15 0-8.28125-6.714844-15-15-15h-55.496094v30zm0 0"/><path d="m497 343.492188c8.285156 0 15-6.714844 15-15 0-8.28125-6.714844-15-15-15h-55.496094v30zm0 0"/><path d="m497 391.824219c8.285156 0 15-6.71875 15-15 0-8.285157-6.714844-15-15-15h-55.496094v30zm0 0"/><path d="m15 361.824219c-8.285156 0-15 6.714843-15 15 0 8.28125 6.714844 15 15 15h55.496094v-30zm0 0"/><path d="m15 313.492188c-8.285156 0-15 6.71875-15 15 0 8.285156 6.714844 15 15 15h55.496094v-30zm0 0"/><path d="m15 265.164062c-8.285156 0-15 6.71875-15 15 0 8.285157 6.714844 15 15 15h55.496094v-30zm0 0"/><path d="m15 216.835938c-8.285156 0-15 6.714843-15 15 0 8.28125 6.714844 15 15 15h55.496094v-30zm0 0"/><path d="m15 168.507812c-8.285156 0-15 6.714844-15 15 0 8.28125 6.714844 15 15 15h55.496094v-30zm0 0"/><path d="m15 120.175781c-8.285156 0-15 6.71875-15 15 0 8.285157 6.714844 15 15 15h55.496094v-30zm0 0"/><path d="m177.925781 288.339844c2.882813 6.960937 2.285157 14.683594-1.355469 20.984375l26.101563 26.105469c6.304687-3.644532 14.027344-4.234376 20.988281-1.355469 6.960938 2.886719 12 8.765625 13.882813 15.796875h36.914062c1.882813-7.03125 6.921875-12.914063 13.882813-15.796875 6.957031-2.882813 14.683594-2.285157 20.984375 1.355469l26.105469-26.105469c-3.640626-6.300781-4.238282-14.023438-1.355469-20.984375 2.882812-6.960938 8.765625-12 15.796875-13.882813v-36.914062c-7.03125-1.882813-12.914063-6.921875-15.796875-13.882813-2.882813-6.960937-2.289063-14.683594 1.351562-20.988281l-26.101562-26.101563c-6.304688 3.640626-14.027344 4.238282-20.988281 1.355469-6.957032-2.882812-12-8.765625-13.882813-15.796875h-36.914063c-1.882812 7.03125-6.921874 12.914063-13.882812 15.796875-6.957031 2.882813-14.679688 2.285157-20.984375-1.355469l-26.101563 26.105469c3.640626 6.300781 4.234376 14.023438 1.351563 20.984375-2.882813 6.960938-8.765625 12-15.796875 13.882813v36.914062c7.035156 1.882813 12.917969 6.921875 15.800781 13.882813zm78.074219-93.835938c33.910156 0 61.5 27.585938 61.5 61.496094s-27.589844 61.496094-61.5 61.496094-61.5-27.585938-61.5-61.496094 27.589844-61.496094 61.5-61.496094zm0 0"/><path d="m256 287.496094c17.367188 0 31.5-14.128906 31.5-31.496094s-14.132812-31.496094-31.5-31.496094-31.5 14.128906-31.5 31.496094 14.132812 31.496094 31.5 31.496094zm0 0"/><path d="m100.496094 411.503906h311.007812v-311.007812h-311.007812zm31.632812-179.34375c0-9.625 5.738282-17.933594 13.976563-21.679687-3.171875-8.476563-1.359375-18.410157 5.445312-25.214844l33.714844-33.714844c4.496094-4.496093 10.476563-6.972656 16.832031-6.972656 2.914063 0 5.742188.519531 8.386719 1.511719 3.753906-8.226563 12.058594-13.960938 21.675781-13.960938h47.679688c9.625 0 17.933594 5.738282 21.679687 13.976563 8.476563-3.171875 18.410157-1.359375 25.214844 5.445312l33.714844 33.714844c6.804687 6.804687 8.621093 16.738281 5.445312 25.214844 8.238281 3.746093 13.976563 12.054687 13.976563 21.679687v47.679688c0 9.625-5.738282 17.933594-13.976563 21.679687 3.175781 8.476563 1.359375 18.410157-5.445312 25.214844l-33.714844 33.714844c-4.496094 4.496093-10.472656 6.972656-16.832031 6.972656-2.910156 0-5.742188-.519531-8.386719-1.511719-3.75 8.226563-12.054687 13.960938-21.675781 13.960938h-47.679688c-9.625 0-17.929687-5.738282-21.679687-13.976563-8.472657 3.175781-18.410157 1.359375-25.214844-5.445312l-33.714844-33.714844c-6.804687-6.804687-8.621093-16.738281-5.445312-25.214844-8.238281-3.746093-13.976563-12.054687-13.976563-21.679687zm0 0"/></svg>