<?xml version="1.0"?>
<svg xmlns="http://www.w3.org/2000/svg" xmlns:xlink="http://www.w3.org/1999/xlink" width="512" height="512" viewBox="0 0 128 128"><defs><linearGradient id="a" x1="116.084" y1="116.084" x2="11.916" y2="11.916" gradientUnits="userSpaceOnUse"><stop offset="0" stop-color="#7075e0"/><stop offset="1" stop-color="#61c7d2"/></linearGradient></defs><path d="M10,64A28.735,28.735,0,1,0,38.735,35.265,28.768,28.768,0,0,0,10,64Zm53.97,0a25.073,25.073,0,0,1-3.532,12.854l-.65-1.374a1.75,1.75,0,1,0-3.164,1.5l1.495,3.159a25.2,25.2,0,0,1-38.768,0l1.5-3.159a5.271,5.271,0,0,1,4.745-3H47.875a1.75,1.75,0,0,0,0-3.5H25.591a8.785,8.785,0,0,0-7.908,5.007l-.651,1.375A25.231,25.231,0,1,1,63.97,64ZM28.308,53.543v3a10.427,10.427,0,1,0,20.854,0v-3a10.427,10.427,0,0,0-20.854,0Zm17.354,0v3a6.927,6.927,0,1,1-13.854,0v-3a6.927,6.927,0,0,1,13.854,0ZM128,26.209v75.582a5.757,5.757,0,0,1-5.75,5.75H5.75A5.757,5.757,0,0,1,0,101.791V26.209a5.757,5.757,0,0,1,5.75-5.75h11a1.75,1.75,0,0,1,0,3.5h-11a2.252,2.252,0,0,0-2.25,2.25v75.582a2.252,2.252,0,0,0,2.25,2.25h116.5a2.252,2.252,0,0,0,2.25-2.25V26.209a2.252,2.252,0,0,0-2.25-2.25H50.375a1.75,1.75,0,0,1,0-3.5H122.25A5.757,5.757,0,0,1,128,26.209Zm-100.625-4a1.751,1.751,0,0,1,1.75-1.75H38a1.75,1.75,0,0,1,0,3.5H29.125A1.751,1.751,0,0,1,27.375,22.209ZM77.75,48.773h38.5a1.75,1.75,0,0,0,1.75-1.75V37.015a1.751,1.751,0,0,0-1.75-1.75H77.75A1.751,1.751,0,0,0,76,37.015V47.023A1.75,1.75,0,0,0,77.75,48.773ZM79.5,38.765h35v6.508h-35ZM76,58.014a1.75,1.75,0,0,1,1.75-1.75h38.5a1.75,1.75,0,0,1,0,3.5H77.75A1.751,1.751,0,0,1,76,58.014Zm34.375,9.24a1.75,1.75,0,0,1,0,3.5H83.625a1.75,1.75,0,0,1,0-3.5ZM76,80a1.75,1.75,0,0,1,1.75-1.75h38.5a1.75,1.75,0,0,1,0,3.5H77.75A1.751,1.751,0,0,1,76,80Zm34.375,9.24a1.75,1.75,0,0,1,0,3.5H83.625a1.75,1.75,0,0,1,0-3.5Z" fill="url(#a)"/></svg>
