<svg id="Layer_5" enable-background="new 0 0 64 64" height="512" viewBox="0 0 64 64" width="512" xmlns="http://www.w3.org/2000/svg" xmlns:xlink="http://www.w3.org/1999/xlink"><linearGradient id="SVGID_1_" gradientUnits="userSpaceOnUse" x1="32" x2="32" y1="63" y2="1"><stop offset="0" stop-color="#9f2fff"/><stop offset="1" stop-color="#0bb1d3"/></linearGradient><path d="m48 59c2.757 0 5-2.243 5-5s-2.243-5-5-5-5 2.243-5 5 2.243 5 5 5zm0-8c1.654 0 3 1.346 3 3s-1.346 3-3 3-3-1.346-3-3 1.346-3 3-3zm-32 8c2.757 0 5-2.243 5-5s-2.243-5-5-5-5 2.243-5 5 2.243 5 5 5zm0-8c1.654 0 3 1.346 3 3s-1.346 3-3 3-3-1.346-3-3 1.346-3 3-3zm44-50h-56c-1.654 0-3 1.346-3 3v56c0 1.654 1.346 3 3 3h56c1.654 0 3-1.346 3-3v-56c0-1.654-1.346-3-3-3zm-56 2h56c.552 0 1 .449 1 1v1h-58v-1c0-.551.448-1 1-1zm51 51c0 3.86-3.141 7-7 7s-7-3.14-7-7 3.141-7 7-7 7 3.14 7 7zm-20-7v14h-6v-14zm-32-2v-28h4v-1c0-2.757 2.243-5 5-5h1v-4h38v4h1c2.757 0 5 2.243 5 5v1h4v28zm20 9c0 3.86-3.141 7-7 7s-7-3.14-7-7 3.141-7 7-7 7 3.14 7 7zm-20-39v-8h8v2.071c-3.062.44-5.489 2.868-5.929 5.929zm55.929 0c-.44-3.061-2.867-5.489-5.929-5.929v-2.071h8v8zm-54.929 46c-.552 0-1-.449-1-1v-13h7.356c-2.044 1.651-3.356 4.174-3.356 7s1.312 5.349 3.356 7zm21-7c0-2.826-1.312-5.349-3.356-7h5.356v14h-5.356c2.044-1.651 3.356-4.174 3.356-7zm12 7v-14h5.356c-2.044 1.651-3.356 4.174-3.356 7s1.312 5.349 3.356 7zm23 0h-6.356c2.044-1.651 3.356-4.174 3.356-7s-1.312-5.349-3.356-7h7.356v13c0 .551-.448 1-1 1zm-5-45c0-1.654-1.346-3-3-3h-40c-1.654 0-3 1.346-3 3v23h46zm-43-1h40c.552 0 1 .449 1 1v5h-42v-5c0-.551.448-1 1-1zm29 18.382-6 3v-9.764l6-3zm-22-6.764 6-3.001v9.764l-6 3.001zm8-2.998 6 2.999v9.764l-6-2.999zm7 1.262-3.766-1.882h7.529zm-16 0-3.764-1.882h7.525zm-7-1.264 6 3v9.764l-6-3zm14.996 11.5 3.766 1.882h-7.527zm15.004.5v1.382h-2.764zm-30 0 2.764 1.382h-2.764zm32 1.382v-14h10v14zm4-18h-2v-2h2zm-4 0h-2v-2h2zm8 0h-2v-2h2zm-6 16h6v-10h-6zm2-8h2v6h-2zm-14 24h-2v-2h2zm0 4h-2v-2h2zm-2 4v-2h2v2z" fill="url(#SVGID_1_)"/></svg>