<svg height="480pt" viewBox="-4 0 479 480" width="480pt" xmlns="http://www.w3.org/2000/svg"><path d="m12.074219 59.054688-11.574219 5.785156 7.152344 14.320312 20.421875-10.214844v-38.394531l24-4.789062v25.292969l-11.574219 5.785156 7.152344 14.320312 20.421875-10.214844v-54.707031l-56 11.210938zm0 0"/><path d="m464.5 40.839844-20.425781 10.214844v32l-11.574219 5.785156 7.152344 14.320312 20.421875-10.214844v-32l11.578125-5.785156zm0 0"/><path d="m308.074219 0h-144c-48.574219.0585938-87.941407 39.421875-88 88v392h80v-32h168v32h72v-392c-.054688-48.578125-39.421875-87.9414062-88-88zm-32 16v16h-32v-16zm72 320h-16v-32c0-53.019531-42.980469-96-96-96-53.015625 0-96 42.980469-96 96v32h-16v-248c.027343-22.082031 17.921875-39.972656 40-40h144c22.082031.027344 39.976562 17.917969 40 40zm0 96h-16v-32h16zm-16-48v-32h16v32zm-192 0h-16v-32h16zm0 48h-16v-32h16zm88-416v16h-32v-16zm-136 72c.046875-39.746094 32.253906-71.957031 72-72h16v16h-16c-30.910157.035156-55.964844 25.085938-56 56v40h-16zm0 56h16v32h-16zm16 48v32h-16v-32zm-16 48h16v96h-16zm0 112h16v32h-16zm0 48h16v32h-16zm48 64h-48v-16h48zm56-32v-120h16v120zm.609375-136c2.570312-19.421875 19.855468-33.464844 39.390625-32 19.539062-1.464844 36.824219 12.578125 39.394531 32zm31.390625 16h16v120h-16zm32 120v-120h16v120zm32 0v-128c.691406-15.054688-4.984375-29.703125-15.640625-40.355469-10.65625-10.65625-25.304688-16.335937-40.359375-15.644531-15.050781-.691406-29.699219 4.988281-40.355469 15.644531-10.65625 10.652344-16.332031 25.300781-15.644531 40.355469v128h-24v-128c0-44.183594 35.820312-80 80-80 44.183593 0 80 35.816406 80 80v128zm88 32h-40v-16h40zm0-32h-16v-32h16zm-16-48v-32h16v32zm16-48h-16v-96h16zm0-112h-16v-32h16zm-16-48v-32h16v32zm16-48h-16v-40c-.035157-30.914062-25.085938-55.964844-56-56h-16v-16h16c39.746093.042969 71.957031 32.253906 72 72zm0 0"/><path d="m308.074219 64h-144c-13.253907 0-24 10.746094-24 24v104h192v-104c0-13.253906-10.742188-24-24-24zm-140.6875 112 42.34375-42.34375-11.308594-11.3125-42.347656 42.34375v-76.6875c0-4.417969 3.582031-8 8-8h140.691406l-50.34375 50.34375 11.308594 11.3125 50.34375-50.34375v84.6875zm0 0"/><path d="m214.417969 106.34375 16-15.996094 11.3125 11.3125-15.996094 15.996094zm0 0"/><path d="m140.074219 208h16v16h-16zm0 0"/><path d="m316.074219 208h16v16h-16zm0 0"/><path d="m44.074219 88h16v16h-16zm0 0"/><path d="m412.074219 112h16v16h-16zm0 0"/></svg>