<svg height="512" viewBox="0 0 42 59" width="512" xmlns="http://www.w3.org/2000/svg"><g id="017---Jukebox" fill="none"><path id="Shape" d="m41 26c.5522847 0 1-.4477153 1-1s-.4477153-1-1-1h-1v-2h1c.5522847 0 1-.4477153 1-1s-.4477153-1-1-1h-1c-.4499642-8.9600566-7.1337634-16.37071893-16-17.74v-1.26c0-.55228475-.4477153-1-1-1s-1 .44771525-1 1v1c-.6660665-.040004-1.3339335-.040004-2 0v-1c0-.55228475-.4477153-1-1-1s-1 .44771525-1 1v1.26c-8.82907162 1.42273577-15.47083672 8.8098776-15.95 17.74h-1.05c-.55228475 0-1 .4477153-1 1s.44771525 1 1 1h1v2h-1c-.55228475 0-1 .4477153-1 1s.44771525 1 1 1h1v17h-1c-.55228475 0-1 .4477153-1 1v6c0 1.1045695.8954305 2 2 2v5c0 1.1045695.8954305 2 2 2h3c1.1045695 0 2-.8954305 2-2 0-.5522847.44771525-1 1-1h22c.5522847 0 1 .4477153 1 1 0 1.1045695.8954305 2 2 2h3c1.1045695 0 2-.8954305 2-2v-5c1.1045695 0 2-.8954305 2-2v-6c0-.5522847-.4477153-1-1-1h-1v-17zm-16-19.44-.69-.18zm1.23.44-.64-.22c.24.02.41.08.64.22zm1.18.5c.25.12-.27-.13-.61-.27zm1.14.6-.55-.37c.11.08.3.17.55.32zm1.08.69c.19.14-.22-.15-.55-.36.1.02.37.18.55.31zm1 .79-.48-.37c.12.03.39.22.5.32z" fill="#805333"/><path id="Shape" d="m6 43v9h-4c-1.1045695 0-2-.8954305-2-2v-6c0-.5522847.44771525-1 1-1z" fill="#f3d55b"/><path id="Shape" d="m42 44v6c0 1.1045695-.8954305 2-2 2h-4v-9h5c.5522847 0 1 .4477153 1 1z" fill="#f3d55b"/><path id="Shape" d="m36 26h-30c0-5.39 0-5.41 0-6h30z" fill="#f5efca"/><path id="Shape" d="m6 20c.1 0 0-.09 0 1z" fill="#f0c419"/><path id="Shape" d="m36 20v1c0-1.08-.1-1 0-1z" fill="#f0c419"/><path id="Shape" d="m36 20h-30c0-8.2842712 6.7157288-15 15-15s15 6.7157288 15 15z" fill="#603e26"/><path id="Shape" d="m40 21v22h-4c0-24.14.06-23 0-23 0-8.2842712-6.7157288-15-15-15s-15 6.7157288-15 15c-.1 0 0-1.11 0 23h-4v-22c0-10.4934102 8.5065898-19 19-19s19 8.5065898 19 19z" fill="#f29c1f"/><path id="Shape" d="m38 21v22h-2c0-24.14.06-23 0-23 0-8.2842712-6.7157288-15-15-15s-15 6.7157288-15 15c-.1 0 0-1.11 0 23h-2v-22c0-10.16 7.29-19.34 17.87-19 9.26.55 16.13 9.16 16.13 19z" fill="#f0c419"/><path id="Rectangle-path" d="m6 26h30v26h-30z" fill="#e57e25"/><path id="Shape" d="m13 17h-1c-.5522847 0-1-.4477153-1-1s.4477153-1 1-1h1c.5522847 0 1 .4477153 1 1s-.4477153 1-1 1z" fill="#805333"/><path id="Shape" d="m30 17h-13c-.5522847 0-1-.4477153-1-1s.4477153-1 1-1h13c.5522847 0 1 .4477153 1 1s-.4477153 1-1 1z" fill="#805333"/><path id="Shape" d="m32 31c0 9.63 0 9.32-.06 10-.5040832 4.0010381-3.9073329 7.0013842-7.94 7-6.19 0-6.74.09-8.06-.27-3.502587-.9333917-5.9398974-4.1051779-5.94-7.73v-9c0-.5522847.4477153-1 1-1h20c.5522847 0 1 .4477153 1 1z" fill="#805333"/><g fill="#a56a43"><path id="Rectangle-path" d="m20 30h2v18h-2z"/><path id="Shape" d="m16 30c0 18.65 0 17.51-.06 17.73-.6820071-.1760381-1.3353007-.448805-1.94-.81v-16.92z"/><path id="Shape" d="m28 30v16.92c-.6046993.361195-1.2579929.6339619-1.94.81-.06-.23-.06.9-.06-17.73z"/><path id="Rectangle-path" d="m10 35h22v2h-22z"/><path id="Shape" d="m31.94 41c-.0888235.6858261-.263527 1.3577627-.52 2h-20.84c-.256473-.6422373-.4311765-1.3141739-.52-2z"/><path id="Shape" d="m16 24v2h-2v-2c0-.5522847.4477153-1 1-1s1 .4477153 1 1z"/><path id="Shape" d="m20 24v2h-2v-2c0-.5522847.4477153-1 1-1s1 .4477153 1 1z"/><path id="Shape" d="m24 24v2h-2v-2c0-.5522847.4477153-1 1-1s1 .4477153 1 1z"/><path id="Shape" d="m28 24v2h-2v-2c0-.5522847.4477153-1 1-1s1 .4477153 1 1z"/><path id="Shape" d="m12 24v2h-2v-2c0-.5522847.4477153-1 1-1s1 .4477153 1 1z"/><path id="Shape" d="m32 24v2h-2v-2c0-.5522847.4477153-1 1-1s1 .4477153 1 1z"/></g><path id="Rectangle-path" d="m2 21h4v4h-4z" fill="#e64c3c"/><path id="Shape" d="m23 2.11v4c-1.327473-.17679124-2.672527-.17679124-4 0v-4c1.3293889-.14504097 2.6706111-.14504097 4 0z" fill="#e64c3c"/><path id="Rectangle-path" d="m36 21h4v4h-4z" fill="#e64c3c"/><path id="Shape" d="m6 22h-5c-.55228475 0-1-.4477153-1-1s.44771525-1 1-1h5c.55228475 0 1 .4477153 1 1s-.44771525 1-1 1z" fill="#95a5a5"/><path id="Shape" d="m6 26h-5c-.55228475 0-1-.4477153-1-1s.44771525-1 1-1h5c.55228475 0 1 .4477153 1 1s-.44771525 1-1 1z" fill="#95a5a5"/><path id="Shape" d="m41 22h-5c-.5522847 0-1-.4477153-1-1s.4477153-1 1-1h5c.5522847 0 1 .4477153 1 1s-.4477153 1-1 1z" fill="#95a5a5"/><path id="Shape" d="m41 26h-5c-.5522847 0-1-.4477153-1-1s.4477153-1 1-1h5c.5522847 0 1 .4477153 1 1s-.4477153 1-1 1z" fill="#95a5a5"/><path id="Shape" d="m19 8c-.5522847 0-1-.44771525-1-1v-6c0-.55228475.4477153-1 1-1s1 .44771525 1 1v6c0 .55228475-.4477153 1-1 1z" fill="#95a5a5"/><path id="Shape" d="m23 8c-.5522847 0-1-.44771525-1-1v-6c0-.55228475.4477153-1 1-1s1 .44771525 1 1v6c0 .55228475-.4477153 1-1 1z" fill="#95a5a5"/></g></svg>